# MagicaVoxel @ Ephtracy

# group
o Lamp

# material
mtllib Lamp-0-Lamp.mtl
usemtl palette

# normals
vn -1 0 0
vn 1 0 0
vn 0 0 1
vn 0 0 -1
vn 0 -1 0
vn 0 1 0

# texcoords
vt 0.482422 0.5
vt 0.513672 0.5
vt 0.634766 0.5

# verts
v 19.8 7.9 36.2
v 19.8 7.9 35.9
v 19.8 8 36.2
v 19.8 8 35.9
v 19.8 8.1 36.2
v 19.8 8.1 35.9
v 19.8 8.2 36.2
v 19.8 8.2 35.9
v 19.8 8.3 36.2
v 19.8 8.3 35.9
v 19.8 8.4 36.2
v 19.8 8.4 35.9
v 19.8 8.9 36.2
v 19.8 8.9 35.9
v 21.6 0.1 36.2
v 21.6 0.1 35.9
v 21.6 8.6 36.2
v 21.6 8.6 35.9
v 21.7 0.1 36.3
v 21.7 0.1 36.2
v 21.7 0.1 35.9
v 21.7 0.1 35.8
v 21.7 8.9 36.3
v 21.7 8.9 36.2
v 21.7 8.9 35.9
v 21.7 8.9 35.8
v 21.8 0.1 36.4
v 21.8 0.1 36.3
v 21.8 0.1 35.8
v 21.8 0.1 35.7
v 21.8 8.9 36.4
v 21.8 8.9 36.3
v 21.8 8.9 35.8
v 21.8 8.9 35.7
v 20.1 7.9 36.2
v 20.1 7.9 35.9
v 20.1 8 36.2
v 20.1 8 35.9
v 20.1 8.1 36.2
v 20.1 8.1 35.9
v 20.1 8.2 36.2
v 20.1 8.2 35.9
v 20.1 8.3 36.2
v 20.1 8.3 35.9
v 20.1 8.4 36.2
v 20.1 8.4 35.9
v 20.1 8.6 36.2
v 20.1 8.6 35.9
v 22.1 0.1 36.4
v 22.1 0.1 36.3
v 22.1 0.1 35.8
v 22.1 0.1 35.7
v 22.1 8.9 36.4
v 22.1 8.9 36.3
v 22.1 8.9 35.8
v 22.1 8.9 35.7
v 22.2 0.1 36.3
v 22.2 0.1 36.2
v 22.2 0.1 35.9
v 22.2 0.1 35.8
v 22.2 8.9 36.3
v 22.2 8.9 36.2
v 22.2 8.9 35.9
v 22.2 8.9 35.8
v 22.3 0.1 36.2
v 22.3 0.1 35.9
v 22.3 8.9 36.2
v 22.3 8.9 35.9
v 21.8 0.1 36.4
v 21.8 8.9 36.4
v 22.1 0.1 36.4
v 22.1 8.9 36.4
v 21.7 0.1 36.3
v 21.7 8.9 36.3
v 21.8 0.1 36.3
v 21.8 8.9 36.3
v 22.1 0.1 36.3
v 22.1 8.9 36.3
v 22.2 0.1 36.3
v 22.2 8.9 36.3
v 19.8 7.9 36.2
v 19.8 8 36.2
v 19.8 8.1 36.2
v 19.8 8.2 36.2
v 19.8 8.3 36.2
v 19.8 8.4 36.2
v 19.8 8.9 36.2
v 20.1 7.9 36.2
v 20.1 8 36.2
v 20.1 8.1 36.2
v 20.1 8.2 36.2
v 20.1 8.3 36.2
v 20.1 8.4 36.2
v 20.1 8.6 36.2
v 21.6 0.1 36.2
v 21.6 8.6 36.2
v 21.7 0.1 36.2
v 21.7 8.9 36.2
v 22.2 0.1 36.2
v 22.2 8.9 36.2
v 22.3 0.1 36.2
v 22.3 8.9 36.2
v 19.8 7.9 35.9
v 19.8 8 35.9
v 19.8 8.1 35.9
v 19.8 8.2 35.9
v 19.8 8.3 35.9
v 19.8 8.4 35.9
v 19.8 8.9 35.9
v 20.1 7.9 35.9
v 20.1 8 35.9
v 20.1 8.1 35.9
v 20.1 8.2 35.9
v 20.1 8.3 35.9
v 20.1 8.4 35.9
v 20.1 8.6 35.9
v 21.6 0.1 35.9
v 21.6 8.6 35.9
v 21.7 0.1 35.9
v 21.7 8.9 35.9
v 22.2 0.1 35.9
v 22.2 8.9 35.9
v 22.3 0.1 35.9
v 22.3 8.9 35.9
v 21.7 0.1 35.8
v 21.7 8.9 35.8
v 21.8 0.1 35.8
v 21.8 8.9 35.8
v 22.1 0.1 35.8
v 22.1 8.9 35.8
v 22.2 0.1 35.8
v 22.2 8.9 35.8
v 21.8 0.1 35.7
v 21.8 8.9 35.7
v 22.1 0.1 35.7
v 22.1 8.9 35.7
v 21.8 0.1 36.4
v 22.1 0.1 36.4
v 21.7 0.1 36.3
v 21.8 0.1 36.3
v 22.1 0.1 36.3
v 22.2 0.1 36.3
v 21.6 0.1 36.2
v 21.7 0.1 36.2
v 22.2 0.1 36.2
v 22.3 0.1 36.2
v 21.6 0.1 35.9
v 21.7 0.1 35.9
v 22.2 0.1 35.9
v 22.3 0.1 35.9
v 21.7 0.1 35.8
v 21.8 0.1 35.8
v 22.1 0.1 35.8
v 22.2 0.1 35.8
v 21.8 0.1 35.7
v 22.1 0.1 35.7
v 19.8 7.9 36.2
v 20.1 7.9 36.2
v 19.8 7.9 35.9
v 20.1 7.9 35.9
v 20.1 8.6 36.2
v 21.6 8.6 36.2
v 20.1 8.6 35.9
v 21.6 8.6 35.9
v 21.8 8.9 36.4
v 22.1 8.9 36.4
v 21.7 8.9 36.3
v 21.8 8.9 36.3
v 22.1 8.9 36.3
v 22.2 8.9 36.3
v 19.8 8.9 36.2
v 21.7 8.9 36.2
v 22.2 8.9 36.2
v 22.3 8.9 36.2
v 19.8 8.9 35.9
v 21.7 8.9 35.9
v 22.2 8.9 35.9
v 22.3 8.9 35.9
v 21.7 8.9 35.8
v 21.8 8.9 35.8
v 22.1 8.9 35.8
v 22.2 8.9 35.8
v 21.8 8.9 35.7
v 22.1 8.9 35.7

# faces
f 3/1/1 2/1/1 1/1/1
f 4/1/1 2/1/1 3/1/1
f 5/2/1 4/2/1 3/2/1
f 6/2/1 4/2/1 5/2/1
f 7/1/1 6/1/1 5/1/1
f 8/1/1 6/1/1 7/1/1
f 9/2/1 8/2/1 7/2/1
f 10/2/1 8/2/1 9/2/1
f 11/1/1 10/1/1 9/1/1
f 12/1/1 10/1/1 11/1/1
f 13/3/1 12/3/1 11/3/1
f 14/3/1 12/3/1 13/3/1
f 17/3/1 16/3/1 15/3/1
f 18/3/1 16/3/1 17/3/1
f 23/3/1 20/3/1 19/3/1
f 24/3/1 20/3/1 23/3/1
f 25/3/1 22/3/1 21/3/1
f 26/3/1 22/3/1 25/3/1
f 31/3/1 28/3/1 27/3/1
f 32/3/1 28/3/1 31/3/1
f 33/3/1 30/3/1 29/3/1
f 34/3/1 30/3/1 33/3/1
f 35/1/2 36/1/2 37/1/2
f 37/1/2 36/1/2 38/1/2
f 37/2/2 38/2/2 39/2/2
f 39/2/2 38/2/2 40/2/2
f 39/1/2 40/1/2 41/1/2
f 41/1/2 40/1/2 42/1/2
f 41/2/2 42/2/2 43/2/2
f 43/2/2 42/2/2 44/2/2
f 43/1/2 44/1/2 45/1/2
f 45/1/2 44/1/2 46/1/2
f 45/3/2 46/3/2 47/3/2
f 47/3/2 46/3/2 48/3/2
f 49/3/2 50/3/2 53/3/2
f 53/3/2 50/3/2 54/3/2
f 51/3/2 52/3/2 55/3/2
f 55/3/2 52/3/2 56/3/2
f 57/3/2 58/3/2 61/3/2
f 61/3/2 58/3/2 62/3/2
f 59/3/2 60/3/2 63/3/2
f 63/3/2 60/3/2 64/3/2
f 65/3/2 66/3/2 67/3/2
f 67/3/2 66/3/2 68/3/2
f 71/3/3 70/3/3 69/3/3
f 72/3/3 70/3/3 71/3/3
f 75/3/3 74/3/3 73/3/3
f 76/3/3 74/3/3 75/3/3
f 79/3/3 78/3/3 77/3/3
f 80/3/3 78/3/3 79/3/3
f 88/1/3 82/1/3 81/1/3
f 89/2/3 83/2/3 82/2/3
f 89/1/3 82/1/3 88/1/3
f 90/1/3 84/1/3 83/1/3
f 90/2/3 83/2/3 89/2/3
f 91/2/3 85/2/3 84/2/3
f 91/1/3 84/1/3 90/1/3
f 92/1/3 86/1/3 85/1/3
f 92/2/3 85/2/3 91/2/3
f 93/3/3 87/3/3 86/3/3
f 93/1/3 86/1/3 92/1/3
f 94/3/3 87/3/3 93/3/3
f 96/3/3 87/3/3 94/3/3
f 97/3/3 96/3/3 95/3/3
f 98/3/3 87/3/3 96/3/3
f 98/3/3 96/3/3 97/3/3
f 101/3/3 100/3/3 99/3/3
f 102/3/3 100/3/3 101/3/3
f 103/1/4 104/1/4 110/1/4
f 104/2/4 105/2/4 111/2/4
f 110/1/4 104/1/4 111/1/4
f 105/1/4 106/1/4 112/1/4
f 111/2/4 105/2/4 112/2/4
f 106/2/4 107/2/4 113/2/4
f 112/1/4 106/1/4 113/1/4
f 107/1/4 108/1/4 114/1/4
f 113/2/4 107/2/4 114/2/4
f 108/3/4 109/3/4 115/3/4
f 114/1/4 108/1/4 115/1/4
f 115/3/4 109/3/4 116/3/4
f 116/3/4 109/3/4 118/3/4
f 117/3/4 118/3/4 119/3/4
f 118/3/4 109/3/4 120/3/4
f 119/3/4 118/3/4 120/3/4
f 121/3/4 122/3/4 123/3/4
f 123/3/4 122/3/4 124/3/4
f 125/3/4 126/3/4 127/3/4
f 127/3/4 126/3/4 128/3/4
f 129/3/4 130/3/4 131/3/4
f 131/3/4 130/3/4 132/3/4
f 133/3/4 134/3/4 135/3/4
f 135/3/4 134/3/4 136/3/4
f 140/3/5 138/3/5 137/3/5
f 141/3/5 138/3/5 140/3/5
f 144/3/5 140/3/5 139/3/5
f 144/3/5 142/3/5 141/3/5
f 144/3/5 141/3/5 140/3/5
f 145/3/5 142/3/5 144/3/5
f 147/3/5 144/3/5 143/3/5
f 147/3/5 146/3/5 145/3/5
f 147/3/5 145/3/5 144/3/5
f 148/3/5 146/3/5 147/3/5
f 149/3/5 146/3/5 148/3/5
f 150/3/5 146/3/5 149/3/5
f 151/3/5 149/3/5 148/3/5
f 152/3/5 149/3/5 151/3/5
f 153/3/5 149/3/5 152/3/5
f 154/3/5 149/3/5 153/3/5
f 155/3/5 153/3/5 152/3/5
f 156/3/5 153/3/5 155/3/5
f 159/1/5 158/1/5 157/1/5
f 160/1/5 158/1/5 159/1/5
f 163/3/5 162/3/5 161/3/5
f 164/3/5 162/3/5 163/3/5
f 165/3/6 166/3/6 168/3/6
f 168/3/6 166/3/6 169/3/6
f 167/3/6 168/3/6 172/3/6
f 169/3/6 170/3/6 172/3/6
f 168/3/6 169/3/6 172/3/6
f 172/3/6 170/3/6 173/3/6
f 171/3/6 172/3/6 175/3/6
f 173/3/6 174/3/6 175/3/6
f 172/3/6 173/3/6 175/3/6
f 175/3/6 174/3/6 176/3/6
f 176/3/6 174/3/6 177/3/6
f 177/3/6 174/3/6 178/3/6
f 176/3/6 177/3/6 179/3/6
f 179/3/6 177/3/6 180/3/6
f 180/3/6 177/3/6 181/3/6
f 181/3/6 177/3/6 182/3/6
f 180/3/6 181/3/6 183/3/6
f 183/3/6 181/3/6 184/3/6
