# MagicaVoxel @ Ephtracy

# group
o Bed

# material
mtllib Bed-0-Bed.mtl
usemtl palette

# normals
vn -1 0 0
vn 1 0 0
vn 0 0 -1
vn 0 0 1
vn 0 -1 0
vn 0 1 0

# texcoords
vt 0.923828 0.5
vt 0.927734 0.5
vt 0.970703 0.5

# verts
v -5 0.5 1.5
v -5 0.5 1.7
v -5 0.5 8.8
v -5 0.5 9
v -5 1.5 1.7
v -5 1.5 8.8
v -5 1.6 1.6
v -5 1.6 8.8
v -5 1.7 1.6
v -5 1.7 8.8
v -5 1.8 1.5
v -5 1.8 8.8
v -5 3.1 8.8
v -5 3.1 9
v -4.9 1.6 1.6
v -4.9 1.6 8.8
v -4.9 1.7 1.6
v -4.9 1.7 8.8
v -4.8 1.8 1.6
v -4.8 1.8 8.8
v -4.8 2.2 1.6
v -4.8 2.2 8.8
v -4.7 2.2 7.6
v -4.7 2.2 8.6
v -4.7 2.3 7.6
v -4.7 2.3 8.6
v -4.6 2.3 7.7
v -4.6 2.3 8.5
v -4.6 2.4 7.7
v -4.6 2.4 8.5
v -4.4 2.4 7.7
v -4.4 2.4 8.5
v -4.4 2.5 7.7
v -4.4 2.5 8.5
v -2.7 2.2 7.6
v -2.7 2.2 8.6
v -2.7 2.3 7.6
v -2.7 2.3 8.6
v -2.6 2.3 7.7
v -2.6 2.3 8.5
v -2.6 2.4 7.7
v -2.6 2.4 8.5
v -2.5 2.4 7.7
v -2.5 2.4 8.5
v -2.5 2.5 7.7
v -2.5 2.5 8.5
v -0.8 0.5 1.5
v -0.8 0.5 1.7
v -0.8 0.5 8.8
v -0.8 0.5 9
v -0.8 1.5 1.5
v -0.8 1.5 1.7
v -0.8 1.5 8.8
v -0.8 1.5 9
v -0.6 1.6 1.5
v -0.6 1.6 1.6
v -0.6 1.7 1.5
v -0.6 1.7 1.6
v -0.6 2.4 8.8
v -0.6 2.4 8.9
v -0.6 3 8.8
v -0.6 3 8.9
v -4.9 1.6 1.5
v -4.9 1.6 1.6
v -4.9 1.7 1.5
v -4.9 1.7 1.6
v -4.9 2.4 8.8
v -4.9 2.4 8.9
v -4.9 3 8.8
v -4.9 3 8.9
v -4.8 0.5 1.5
v -4.8 0.5 1.7
v -4.8 0.5 8.8
v -4.8 0.5 9
v -4.8 1.5 1.5
v -4.8 1.5 1.7
v -4.8 1.5 8.8
v -4.8 1.5 9
v -3 2.4 7.7
v -3 2.4 8.5
v -3 2.5 7.7
v -3 2.5 8.5
v -2.9 2.3 7.7
v -2.9 2.3 8.5
v -2.9 2.4 7.7
v -2.9 2.4 8.5
v -2.8 2.2 7.6
v -2.8 2.2 8.6
v -2.8 2.3 7.6
v -2.8 2.3 8.6
v -1 2.4 7.7
v -1 2.4 8.5
v -1 2.5 7.7
v -1 2.5 8.5
v -0.9 2.3 7.7
v -0.9 2.3 8.5
v -0.9 2.4 7.7
v -0.9 2.4 8.5
v -0.8 2.2 7.6
v -0.8 2.2 8.6
v -0.8 2.3 7.6
v -0.8 2.3 8.6
v -0.6 1.6 1.6
v -0.6 1.6 8.8
v -0.6 1.7 1.6
v -0.6 1.7 8.8
v -0.6 1.8 1.6
v -0.6 1.8 8.8
v -0.6 2.2 1.6
v -0.6 2.2 8.8
v -0.5 0.5 1.5
v -0.5 0.5 1.7
v -0.5 0.5 8.8
v -0.5 0.5 9
v -0.5 1.5 1.7
v -0.5 1.5 8.8
v -0.5 1.6 1.6
v -0.5 1.6 8.8
v -0.5 1.7 1.6
v -0.5 1.7 8.8
v -0.5 1.8 1.5
v -0.5 1.8 8.8
v -0.5 3.1 8.8
v -0.5 3.1 9
v -5 0.5 1.5
v -5 1.8 1.5
v -4.9 1.6 1.5
v -4.9 1.7 1.5
v -4.8 0.5 1.5
v -4.8 1.5 1.5
v -0.8 0.5 1.5
v -0.8 1.5 1.5
v -0.6 1.6 1.5
v -0.6 1.7 1.5
v -0.5 0.5 1.5
v -0.5 1.8 1.5
v -4.9 1.6 1.6
v -4.9 1.7 1.6
v -4.8 1.8 1.6
v -4.8 2.2 1.6
v -0.6 1.6 1.6
v -0.6 1.7 1.6
v -0.6 1.8 1.6
v -0.6 2.2 1.6
v -4.7 2.2 7.6
v -4.7 2.3 7.6
v -2.8 2.2 7.6
v -2.8 2.3 7.6
v -2.7 2.2 7.6
v -2.7 2.3 7.6
v -0.8 2.2 7.6
v -0.8 2.3 7.6
v -4.6 2.3 7.7
v -4.6 2.4 7.7
v -4.4 2.4 7.7
v -4.4 2.5 7.7
v -3 2.4 7.7
v -3 2.5 7.7
v -2.9 2.3 7.7
v -2.9 2.4 7.7
v -2.6 2.3 7.7
v -2.6 2.4 7.7
v -2.5 2.4 7.7
v -2.5 2.5 7.7
v -1 2.4 7.7
v -1 2.5 7.7
v -0.9 2.3 7.7
v -0.9 2.4 7.7
v -5 0.5 8.8
v -5 1.5 8.8
v -5 1.6 8.8
v -5 1.7 8.8
v -5 1.8 8.8
v -5 3.1 8.8
v -4.9 1.6 8.8
v -4.9 1.7 8.8
v -4.9 2.4 8.8
v -4.9 3 8.8
v -4.8 0.5 8.8
v -4.8 1.5 8.8
v -4.8 1.8 8.8
v -4.8 2.2 8.8
v -0.8 0.5 8.8
v -0.8 1.5 8.8
v -0.6 1.6 8.8
v -0.6 1.7 8.8
v -0.6 1.8 8.8
v -0.6 2.2 8.8
v -0.6 2.4 8.8
v -0.6 3 8.8
v -0.5 0.5 8.8
v -0.5 1.5 8.8
v -0.5 1.6 8.8
v -0.5 1.7 8.8
v -0.5 1.8 8.8
v -0.5 3.1 8.8
v -4.9 2.4 8.9
v -4.9 3 8.9
v -0.6 2.4 8.9
v -0.6 3 8.9
v -5 1.6 1.6
v -5 1.7 1.6
v -4.9 1.6 1.6
v -4.9 1.7 1.6
v -0.6 1.6 1.6
v -0.6 1.7 1.6
v -0.5 1.6 1.6
v -0.5 1.7 1.6
v -5 0.5 1.7
v -5 1.5 1.7
v -4.8 0.5 1.7
v -4.8 1.5 1.7
v -0.8 0.5 1.7
v -0.8 1.5 1.7
v -0.5 0.5 1.7
v -0.5 1.5 1.7
v -4.6 2.3 8.5
v -4.6 2.4 8.5
v -4.4 2.4 8.5
v -4.4 2.5 8.5
v -3 2.4 8.5
v -3 2.5 8.5
v -2.9 2.3 8.5
v -2.9 2.4 8.5
v -2.6 2.3 8.5
v -2.6 2.4 8.5
v -2.5 2.4 8.5
v -2.5 2.5 8.5
v -1 2.4 8.5
v -1 2.5 8.5
v -0.9 2.3 8.5
v -0.9 2.4 8.5
v -4.7 2.2 8.6
v -4.7 2.3 8.6
v -2.8 2.2 8.6
v -2.8 2.3 8.6
v -2.7 2.2 8.6
v -2.7 2.3 8.6
v -0.8 2.2 8.6
v -0.8 2.3 8.6
v -5 0.5 9
v -5 3.1 9
v -4.8 0.5 9
v -4.8 1.5 9
v -0.8 0.5 9
v -0.8 1.5 9
v -0.5 0.5 9
v -0.5 3.1 9
v -5 0.5 1.5
v -4.8 0.5 1.5
v -0.8 0.5 1.5
v -0.5 0.5 1.5
v -5 0.5 1.7
v -4.8 0.5 1.7
v -0.8 0.5 1.7
v -0.5 0.5 1.7
v -5 0.5 8.8
v -4.8 0.5 8.8
v -0.8 0.5 8.8
v -0.5 0.5 8.8
v -5 0.5 9
v -4.8 0.5 9
v -0.8 0.5 9
v -0.5 0.5 9
v -4.8 1.5 1.5
v -0.8 1.5 1.5
v -5 1.5 1.7
v -4.8 1.5 1.7
v -0.8 1.5 1.7
v -0.5 1.5 1.7
v -5 1.5 8.8
v -4.8 1.5 8.8
v -0.8 1.5 8.8
v -0.5 1.5 8.8
v -4.8 1.5 9
v -0.8 1.5 9
v -4.9 1.7 1.5
v -0.6 1.7 1.5
v -5 1.7 1.6
v -4.9 1.7 1.6
v -0.6 1.7 1.6
v -0.5 1.7 1.6
v -5 1.7 8.8
v -4.9 1.7 8.8
v -0.6 1.7 8.8
v -0.5 1.7 8.8
v -4.9 3 8.8
v -0.6 3 8.8
v -4.9 3 8.9
v -0.6 3 8.9
v -4.9 1.6 1.5
v -0.6 1.6 1.5
v -5 1.6 1.6
v -4.9 1.6 1.6
v -0.6 1.6 1.6
v -0.5 1.6 1.6
v -5 1.6 8.8
v -4.9 1.6 8.8
v -0.6 1.6 8.8
v -0.5 1.6 8.8
v -5 1.8 1.5
v -0.5 1.8 1.5
v -4.8 1.8 1.6
v -0.6 1.8 1.6
v -5 1.8 8.8
v -4.8 1.8 8.8
v -0.6 1.8 8.8
v -0.5 1.8 8.8
v -4.8 2.2 1.6
v -0.6 2.2 1.6
v -4.7 2.2 7.6
v -2.8 2.2 7.6
v -2.7 2.2 7.6
v -0.8 2.2 7.6
v -4.7 2.2 8.6
v -2.8 2.2 8.6
v -2.7 2.2 8.6
v -0.8 2.2 8.6
v -4.8 2.2 8.8
v -0.6 2.2 8.8
v -4.7 2.3 7.6
v -2.8 2.3 7.6
v -2.7 2.3 7.6
v -0.8 2.3 7.6
v -4.6 2.3 7.7
v -2.9 2.3 7.7
v -2.6 2.3 7.7
v -0.9 2.3 7.7
v -4.6 2.3 8.5
v -2.9 2.3 8.5
v -2.6 2.3 8.5
v -0.9 2.3 8.5
v -4.7 2.3 8.6
v -2.8 2.3 8.6
v -2.7 2.3 8.6
v -0.8 2.3 8.6
v -4.6 2.4 7.7
v -4.4 2.4 7.7
v -3 2.4 7.7
v -2.9 2.4 7.7
v -2.6 2.4 7.7
v -2.5 2.4 7.7
v -1 2.4 7.7
v -0.9 2.4 7.7
v -4.6 2.4 8.5
v -4.4 2.4 8.5
v -3 2.4 8.5
v -2.9 2.4 8.5
v -2.6 2.4 8.5
v -2.5 2.4 8.5
v -1 2.4 8.5
v -0.9 2.4 8.5
v -4.9 2.4 8.8
v -0.6 2.4 8.8
v -4.9 2.4 8.9
v -0.6 2.4 8.9
v -4.4 2.5 7.7
v -3 2.5 7.7
v -2.5 2.5 7.7
v -1 2.5 7.7
v -4.4 2.5 8.5
v -3 2.5 8.5
v -2.5 2.5 8.5
v -1 2.5 8.5
v -5 3.1 8.8
v -0.5 3.1 8.8
v -5 3.1 9
v -0.5 3.1 9

# faces
f 1/3/1 2/3/1 5/3/1
f 3/3/1 4/3/1 6/3/1
f 1/3/1 5/3/1 7/3/1
f 5/3/1 6/3/1 7/3/1
f 6/3/1 4/3/1 8/3/1
f 7/3/1 6/3/1 8/3/1
f 1/3/1 7/3/1 9/3/1
f 8/3/1 4/3/1 10/3/1
f 1/3/1 9/3/1 11/3/1
f 9/3/1 10/3/1 11/3/1
f 10/3/1 4/3/1 12/3/1
f 11/3/1 10/3/1 12/3/1
f 12/3/1 4/3/1 13/3/1
f 13/3/1 4/3/1 14/3/1
f 15/3/1 16/3/1 17/3/1
f 17/3/1 16/3/1 18/3/1
f 19/1/1 20/1/1 21/1/1
f 21/1/1 20/1/1 22/1/1
f 23/2/1 24/2/1 25/2/1
f 25/2/1 24/2/1 26/2/1
f 27/2/1 28/2/1 29/2/1
f 29/2/1 28/2/1 30/2/1
f 31/2/1 32/2/1 33/2/1
f 33/2/1 32/2/1 34/2/1
f 35/2/1 36/2/1 37/2/1
f 37/2/1 36/2/1 38/2/1
f 39/2/1 40/2/1 41/2/1
f 41/2/1 40/2/1 42/2/1
f 43/2/1 44/2/1 45/2/1
f 45/2/1 44/2/1 46/2/1
f 47/3/1 48/3/1 51/3/1
f 51/3/1 48/3/1 52/3/1
f 49/3/1 50/3/1 53/3/1
f 53/3/1 50/3/1 54/3/1
f 55/3/1 56/3/1 57/3/1
f 57/3/1 56/3/1 58/3/1
f 59/3/1 60/3/1 61/3/1
f 61/3/1 60/3/1 62/3/1
f 65/3/2 64/3/2 63/3/2
f 66/3/2 64/3/2 65/3/2
f 69/3/2 68/3/2 67/3/2
f 70/3/2 68/3/2 69/3/2
f 75/3/2 72/3/2 71/3/2
f 76/3/2 72/3/2 75/3/2
f 77/3/2 74/3/2 73/3/2
f 78/3/2 74/3/2 77/3/2
f 81/2/2 80/2/2 79/2/2
f 82/2/2 80/2/2 81/2/2
f 85/2/2 84/2/2 83/2/2
f 86/2/2 84/2/2 85/2/2
f 89/2/2 88/2/2 87/2/2
f 90/2/2 88/2/2 89/2/2
f 93/2/2 92/2/2 91/2/2
f 94/2/2 92/2/2 93/2/2
f 97/2/2 96/2/2 95/2/2
f 98/2/2 96/2/2 97/2/2
f 101/2/2 100/2/2 99/2/2
f 102/2/2 100/2/2 101/2/2
f 105/3/2 104/3/2 103/3/2
f 106/3/2 104/3/2 105/3/2
f 109/1/2 108/1/2 107/1/2
f 110/1/2 108/1/2 109/1/2
f 115/3/2 112/3/2 111/3/2
f 116/3/2 114/3/2 113/3/2
f 117/3/2 115/3/2 111/3/2
f 117/3/2 116/3/2 115/3/2
f 118/3/2 114/3/2 116/3/2
f 118/3/2 116/3/2 117/3/2
f 119/3/2 117/3/2 111/3/2
f 120/3/2 114/3/2 118/3/2
f 121/3/2 119/3/2 111/3/2
f 121/3/2 120/3/2 119/3/2
f 122/3/2 114/3/2 120/3/2
f 122/3/2 120/3/2 121/3/2
f 123/3/2 114/3/2 122/3/2
f 124/3/2 114/3/2 123/3/2
f 125/3/3 126/3/3 127/3/3
f 127/3/3 126/3/3 128/3/3
f 125/3/3 127/3/3 129/3/3
f 129/3/3 127/3/3 130/3/3
f 130/3/3 127/3/3 132/3/3
f 132/3/3 127/3/3 133/3/3
f 131/3/3 132/3/3 133/3/3
f 128/3/3 126/3/3 134/3/3
f 131/3/3 133/3/3 135/3/3
f 133/3/3 134/3/3 135/3/3
f 134/3/3 126/3/3 136/3/3
f 135/3/3 134/3/3 136/3/3
f 137/3/3 138/3/3 141/3/3
f 141/3/3 138/3/3 142/3/3
f 139/1/3 140/1/3 143/1/3
f 143/1/3 140/1/3 144/1/3
f 145/2/3 146/2/3 147/2/3
f 147/2/3 146/2/3 148/2/3
f 149/2/3 150/2/3 151/2/3
f 151/2/3 150/2/3 152/2/3
f 153/2/3 154/2/3 155/2/3
f 153/2/3 155/2/3 157/2/3
f 155/2/3 156/2/3 157/2/3
f 157/2/3 156/2/3 158/2/3
f 153/2/3 157/2/3 159/2/3
f 159/2/3 157/2/3 160/2/3
f 161/2/3 162/2/3 163/2/3
f 161/2/3 163/2/3 165/2/3
f 163/2/3 164/2/3 165/2/3
f 165/2/3 164/2/3 166/2/3
f 161/2/3 165/2/3 167/2/3
f 167/2/3 165/2/3 168/2/3
f 171/3/3 172/3/3 175/3/3
f 175/3/3 172/3/3 176/3/3
f 173/3/3 174/3/3 177/3/3
f 177/3/3 174/3/3 178/3/3
f 169/3/3 170/3/3 179/3/3
f 179/3/3 170/3/3 180/3/3
f 173/3/3 177/3/3 181/3/3
f 181/3/3 177/3/3 182/3/3
f 182/3/3 177/3/3 188/3/3
f 188/3/3 177/3/3 189/3/3
f 178/3/3 174/3/3 190/3/3
f 183/3/3 184/3/3 191/3/3
f 191/3/3 184/3/3 192/3/3
f 185/3/3 186/3/3 193/3/3
f 193/3/3 186/3/3 194/3/3
f 188/3/3 189/3/3 195/3/3
f 189/3/3 190/3/3 195/3/3
f 187/3/3 188/3/3 195/3/3
f 190/3/3 174/3/3 196/3/3
f 195/3/3 190/3/3 196/3/3
f 197/3/3 198/3/3 199/3/3
f 199/3/3 198/3/3 200/3/3
f 203/3/4 202/3/4 201/3/4
f 204/3/4 202/3/4 203/3/4
f 207/3/4 206/3/4 205/3/4
f 208/3/4 206/3/4 207/3/4
f 211/3/4 210/3/4 209/3/4
f 212/3/4 210/3/4 211/3/4
f 215/3/4 214/3/4 213/3/4
f 216/3/4 214/3/4 215/3/4
f 219/2/4 218/2/4 217/2/4
f 221/2/4 219/2/4 217/2/4
f 221/2/4 220/2/4 219/2/4
f 222/2/4 220/2/4 221/2/4
f 223/2/4 221/2/4 217/2/4
f 224/2/4 221/2/4 223/2/4
f 227/2/4 226/2/4 225/2/4
f 229/2/4 227/2/4 225/2/4
f 229/2/4 228/2/4 227/2/4
f 230/2/4 228/2/4 229/2/4
f 231/2/4 229/2/4 225/2/4
f 232/2/4 229/2/4 231/2/4
f 235/2/4 234/2/4 233/2/4
f 236/2/4 234/2/4 235/2/4
f 239/2/4 238/2/4 237/2/4
f 240/2/4 238/2/4 239/2/4
f 243/3/4 242/3/4 241/3/4
f 244/3/4 242/3/4 243/3/4
f 246/3/4 242/3/4 244/3/4
f 247/3/4 246/3/4 245/3/4
f 248/3/4 242/3/4 246/3/4
f 248/3/4 246/3/4 247/3/4
f 249/3/5 250/3/5 253/3/5
f 253/3/5 250/3/5 254/3/5
f 251/3/5 252/3/5 255/3/5
f 255/3/5 252/3/5 256/3/5
f 257/3/5 258/3/5 261/3/5
f 261/3/5 258/3/5 262/3/5
f 259/3/5 260/3/5 263/3/5
f 263/3/5 260/3/5 264/3/5
f 265/3/5 266/3/5 268/3/5
f 268/3/5 266/3/5 269/3/5
f 267/3/5 268/3/5 271/3/5
f 269/3/5 270/3/5 271/3/5
f 268/3/5 269/3/5 271/3/5
f 271/3/5 270/3/5 272/3/5
f 272/3/5 270/3/5 273/3/5
f 273/3/5 270/3/5 274/3/5
f 272/3/5 273/3/5 275/3/5
f 275/3/5 273/3/5 276/3/5
f 277/3/5 278/3/5 280/3/5
f 280/3/5 278/3/5 281/3/5
f 279/3/5 280/3/5 283/3/5
f 283/3/5 280/3/5 284/3/5
f 281/3/5 282/3/5 285/3/5
f 285/3/5 282/3/5 286/3/5
f 287/3/5 288/3/5 289/3/5
f 289/3/5 288/3/5 290/3/5
f 294/3/6 292/3/6 291/3/6
f 295/3/6 292/3/6 294/3/6
f 297/3/6 294/3/6 293/3/6
f 298/3/6 294/3/6 297/3/6
f 299/3/6 296/3/6 295/3/6
f 300/3/6 296/3/6 299/3/6
f 303/3/6 302/3/6 301/3/6
f 304/3/6 302/3/6 303/3/6
f 305/3/6 303/3/6 301/3/6
f 306/3/6 303/3/6 305/3/6
f 307/3/6 302/3/6 304/3/6
f 308/3/6 302/3/6 307/3/6
f 311/1/6 310/1/6 309/1/6
f 312/1/6 310/1/6 311/1/6
f 313/1/6 310/1/6 312/1/6
f 314/1/6 310/1/6 313/1/6
f 315/1/6 311/1/6 309/1/6
f 316/1/6 313/1/6 312/1/6
f 317/1/6 313/1/6 316/1/6
f 318/1/6 310/1/6 314/1/6
f 319/1/6 317/1/6 316/1/6
f 319/1/6 318/1/6 317/1/6
f 319/1/6 315/1/6 309/1/6
f 319/1/6 316/1/6 315/1/6
f 320/1/6 310/1/6 318/1/6
f 320/1/6 318/1/6 319/1/6
f 325/2/6 322/2/6 321/2/6
f 326/2/6 322/2/6 325/2/6
f 327/2/6 324/2/6 323/2/6
f 328/2/6 324/2/6 327/2/6
f 329/2/6 325/2/6 321/2/6
f 330/2/6 322/2/6 326/2/6
f 331/2/6 327/2/6 323/2/6
f 332/2/6 324/2/6 328/2/6
f 333/2/6 329/2/6 321/2/6
f 333/2/6 330/2/6 329/2/6
f 334/2/6 322/2/6 330/2/6
f 334/2/6 330/2/6 333/2/6
f 335/2/6 332/2/6 331/2/6
f 335/2/6 331/2/6 323/2/6
f 336/2/6 324/2/6 332/2/6
f 336/2/6 332/2/6 335/2/6
f 345/2/6 338/2/6 337/2/6
f 346/2/6 338/2/6 345/2/6
f 347/2/6 340/2/6 339/2/6
f 348/2/6 340/2/6 347/2/6
f 349/2/6 342/2/6 341/2/6
f 350/2/6 342/2/6 349/2/6
f 351/2/6 344/2/6 343/2/6
f 352/2/6 344/2/6 351/2/6
f 355/3/6 354/3/6 353/3/6
f 356/3/6 354/3/6 355/3/6
f 361/2/6 358/2/6 357/2/6
f 362/2/6 358/2/6 361/2/6
f 363/2/6 360/2/6 359/2/6
f 364/2/6 360/2/6 363/2/6
f 367/3/6 366/3/6 365/3/6
f 368/3/6 366/3/6 367/3/6
