# MagicaVoxel @ Ephtracy

# group
o Road6

# material
mtllib RoadLeft-0-Road6.mtl
usemtl palette

# normals
vn 1 0 0
vn -1 0 0
vn 0 0 1
vn 0 0 -1
vn 0 -1 0
vn 0 1 0

# texcoords
vt 0.521484 0.5
vt 0.666016 0.5
vt 0.853516 0.5
vt 0.978516 0.5

# verts
v 26.1 0 17.1
v 26.1 0 -8.4
v 26.1 0.1 17.1
v 26.1 0.1 9.6
v 26.1 0.1 6.2
v 26.1 0.1 0.800001
v 26.1 0.1 -2.9
v 26.1 0.1 -8.4
v 26.1 0.2 17.1
v 26.1 0.2 9.6
v 26.1 0.2 6.2
v 26.1 0.2 0.800001
v 26.1 0.2 -2.9
v 26.1 0.2 -8.4
v 20.9 0.1 17.1
v 20.9 0.1 17
v 20.9 0.1 -8.4
v 20.9 0.2 17.1
v 20.9 0.2 17
v 20.9 0.2 -8.4
v 24.3 0.1 17.1
v 24.3 0.1 -8.4
v 24.3 0.2 17.1
v 24.3 0.2 -8.4
v 16.1 0 17.1
v 16.1 0 -8.4
v 16.1 0.1 17.1
v 16.1 0.1 -8.4
v 16.1 0.2 17.1
v 16.1 0.2 -8.4
v 26.1 0 17.1
v 26.1 0.1 17.1
v 26.1 0.2 17.1
v 26 0.1 17.1
v 26 0.2 17.1
v 25.6 0.1 17.1
v 25.6 0.2 17.1
v 24.3 0.1 17.1
v 24.3 0.2 17.1
v 20.9 0.1 17.1
v 20.9 0.2 17.1
v 16.1 0 17.1
v 16.1 0.1 17.1
v 16.1 0.2 17.1
v 26.1 0 -8.4
v 26.1 0.1 -8.4
v 26.1 0.2 -8.4
v 25.6 0.1 -8.4
v 25.6 0.2 -8.4
v 24.3 0.1 -8.4
v 24.3 0.2 -8.4
v 20.9 0.1 -8.4
v 20.9 0.2 -8.4
v 19.5 0.1 -8.4
v 19.5 0.2 -8.4
v 16.1 0 -8.4
v 16.1 0.1 -8.4
v 16.1 0.2 -8.4
v 26.1 0 17.1
v 16.1 0 17.1
v 26.1 0 -8.4
v 16.1 0 -8.4
v 24.3 0.1 17.1
v 20.9 0.1 17.1
v 20.9 0.1 17
v 24.3 0.1 -8.4
v 20.9 0.1 -8.4
v 26.1 0.2 17.1
v 26 0.2 17.1
v 25.6 0.2 17.1
v 24.3 0.2 17.1
v 20.9 0.2 17.1
v 16.1 0.2 17.1
v 20.9 0.2 17
v 19.5 0.2 17
v 26 0.2 13.9
v 25.6 0.2 13.9
v 26.1 0.2 9.6
v 25.6 0.2 9.6
v 26.1 0.2 6.2
v 25.6 0.2 6.2
v 26.1 0.2 0.800001
v 25.6 0.2 0.800001
v 26.1 0.2 -2.9
v 25.6 0.2 -2.9
v 26.1 0.2 -8.4
v 25.6 0.2 -8.4
v 24.3 0.2 -8.4
v 20.9 0.2 -8.4
v 19.5 0.2 -8.4
v 16.1 0.2 -8.4

# faces
f 1/1/1 2/1/1 3/1/1
f 3/1/1 2/1/1 4/1/1
f 4/1/1 2/1/1 5/1/1
f 5/1/1 2/1/1 6/1/1
f 6/1/1 2/1/1 7/1/1
f 7/1/1 2/1/1 8/1/1
f 3/4/1 4/4/1 9/4/1
f 4/2/1 5/2/1 10/2/1
f 9/4/1 4/4/1 10/4/1
f 5/4/1 6/4/1 11/4/1
f 10/2/1 5/2/1 11/2/1
f 6/2/1 7/2/1 12/2/1
f 11/4/1 6/4/1 12/4/1
f 7/4/1 8/4/1 13/4/1
f 12/2/1 7/2/1 13/2/1
f 13/4/1 8/4/1 14/4/1
f 15/4/1 16/4/1 18/4/1
f 16/3/1 17/3/1 19/3/1
f 18/4/1 16/4/1 19/4/1
f 19/3/1 17/3/1 20/3/1
f 23/3/2 22/3/2 21/3/2
f 24/3/2 22/3/2 23/3/2
f 27/1/2 26/1/2 25/1/2
f 28/1/2 26/1/2 27/1/2
f 29/4/2 28/4/2 27/4/2
f 30/4/2 28/4/2 29/4/2
f 31/1/3 32/1/3 34/1/3
f 32/4/3 33/4/3 34/4/3
f 34/4/3 33/4/3 35/4/3
f 31/1/3 34/1/3 36/1/3
f 34/2/3 35/2/3 36/2/3
f 36/2/3 35/2/3 37/2/3
f 31/1/3 36/1/3 38/1/3
f 36/3/3 37/3/3 38/3/3
f 38/3/3 37/3/3 39/3/3
f 31/1/3 38/1/3 40/1/3
f 31/1/3 40/1/3 42/1/3
f 40/4/3 41/4/3 43/4/3
f 42/1/3 40/1/3 43/1/3
f 43/4/3 41/4/3 44/4/3
f 48/1/4 46/1/4 45/1/4
f 48/4/4 47/4/4 46/4/4
f 49/4/4 47/4/4 48/4/4
f 50/1/4 48/1/4 45/1/4
f 50/3/4 49/3/4 48/3/4
f 51/3/4 49/3/4 50/3/4
f 52/1/4 50/1/4 45/1/4
f 54/1/4 52/1/4 45/1/4
f 54/3/4 53/3/4 52/3/4
f 55/3/4 53/3/4 54/3/4
f 56/1/4 54/1/4 45/1/4
f 57/4/4 55/4/4 54/4/4
f 57/1/4 54/1/4 56/1/4
f 58/4/4 55/4/4 57/4/4
f 59/1/5 60/1/5 61/1/5
f 61/1/5 60/1/5 62/1/5
f 65/1/6 64/1/6 63/1/6
f 66/1/6 65/1/6 63/1/6
f 67/1/6 65/1/6 66/1/6
f 74/4/6 73/4/6 72/4/6
f 75/4/6 73/4/6 74/4/6
f 76/4/6 69/4/6 68/4/6
f 76/2/6 70/2/6 69/2/6
f 77/3/6 71/3/6 70/3/6
f 77/2/6 70/2/6 76/2/6
f 78/4/6 76/4/6 68/4/6
f 78/4/6 77/4/6 76/4/6
f 79/3/6 71/3/6 77/3/6
f 79/4/6 77/4/6 78/4/6
f 80/2/6 79/2/6 78/2/6
f 81/3/6 71/3/6 79/3/6
f 81/2/6 79/2/6 80/2/6
f 82/4/6 81/4/6 80/4/6
f 83/3/6 71/3/6 81/3/6
f 83/4/6 81/4/6 82/4/6
f 84/2/6 83/2/6 82/2/6
f 85/3/6 71/3/6 83/3/6
f 85/2/6 83/2/6 84/2/6
f 86/4/6 85/4/6 84/4/6
f 87/3/6 71/3/6 85/3/6
f 87/4/6 85/4/6 86/4/6
f 88/3/6 71/3/6 87/3/6
f 89/3/6 75/3/6 74/3/6
f 90/4/6 73/4/6 75/4/6
f 90/3/6 75/3/6 89/3/6
f 91/4/6 73/4/6 90/4/6
