# MagicaVoxel @ Ephtracy

# group
o Frame

# material
mtllib FrameForPainting-0-Frame.mtl
usemtl palette

# normals
vn -1 0 0
vn 1 0 0
vn 0 0 1
vn 0 0 -1
vn 0 -1 0
vn 0 1 0

# texcoords
vt 0.794922 0.5
vt 0.970703 0.5

# verts
v -5 2.7 6.9
v -5 2.7 2.9
v -5 2.8 6.8
v -5 2.8 3
v -5 6.1 6.8
v -5 6.1 3
v -5 6.2 6.9
v -5 6.2 2.9
v -4.9 2.8 6.8
v -4.9 2.8 3
v -4.9 6.1 6.8
v -4.9 6.1 3
v -4.8 2.7 6.9
v -4.8 2.7 2.9
v -4.8 2.8 6.8
v -4.8 2.8 3
v -4.8 6.1 6.8
v -4.8 6.1 3
v -4.8 6.2 6.9
v -4.8 6.2 2.9
v -5 2.7 6.9
v -5 6.2 6.9
v -4.8 2.7 6.9
v -4.8 6.2 6.9
v -5 2.8 3
v -5 6.1 3
v -4.9 2.8 3
v -4.9 6.1 3
v -5 2.8 6.8
v -5 6.1 6.8
v -4.9 2.8 6.8
v -4.9 6.1 6.8
v -5 2.7 2.9
v -5 6.2 2.9
v -4.8 2.7 2.9
v -4.8 6.2 2.9
v -5 2.7 6.9
v -4.8 2.7 6.9
v -5 2.7 2.9
v -4.8 2.7 2.9
v -5 6.1 6.8
v -4.9 6.1 6.8
v -5 6.1 3
v -4.9 6.1 3
v -5 2.8 6.8
v -4.9 2.8 6.8
v -5 2.8 3
v -4.9 2.8 3
v -5 6.2 6.9
v -4.8 6.2 6.9
v -5 6.2 2.9
v -4.8 6.2 2.9

# faces
f 3/2/1 2/2/1 1/2/1
f 4/2/1 2/2/1 3/2/1
f 5/2/1 3/2/1 1/2/1
f 6/2/1 2/2/1 4/2/1
f 7/2/1 5/2/1 1/2/1
f 7/2/1 6/2/1 5/2/1
f 8/2/1 2/2/1 6/2/1
f 8/2/1 6/2/1 7/2/1
f 11/1/1 10/1/1 9/1/1
f 12/1/1 10/1/1 11/1/1
f 13/2/2 14/2/2 15/2/2
f 15/2/2 14/2/2 16/2/2
f 13/2/2 15/2/2 17/2/2
f 15/1/2 16/1/2 17/1/2
f 16/2/2 14/2/2 18/2/2
f 17/1/2 16/1/2 18/1/2
f 13/2/2 17/2/2 19/2/2
f 17/2/2 18/2/2 19/2/2
f 18/2/2 14/2/2 20/2/2
f 19/2/2 18/2/2 20/2/2
f 23/2/3 22/2/3 21/2/3
f 24/2/3 22/2/3 23/2/3
f 27/2/3 26/2/3 25/2/3
f 28/2/3 26/2/3 27/2/3
f 29/2/4 30/2/4 31/2/4
f 31/2/4 30/2/4 32/2/4
f 33/2/4 34/2/4 35/2/4
f 35/2/4 34/2/4 36/2/4
f 39/2/5 38/2/5 37/2/5
f 40/2/5 38/2/5 39/2/5
f 43/2/5 42/2/5 41/2/5
f 44/2/5 42/2/5 43/2/5
f 45/2/6 46/2/6 47/2/6
f 47/2/6 46/2/6 48/2/6
f 49/2/6 50/2/6 51/2/6
f 51/2/6 50/2/6 52/2/6
