# MagicaVoxel @ Ephtracy

# group
o Room

# material
mtllib Room-0-Room.mtl
usemtl palette

# normals
vn -1 0 0
vn 1 0 0
vn 0 0 1
vn 0 0 -1
vn 0 -1 0
vn 0 1 0

# texcoords
vt 0.197266 0.5
vt 0.466797 0.5
vt 0.482422 0.5
vt 0.486328 0.5

# verts
v -5.5 0 9.5
v -5.5 0 -7.9
v -5.5 6.5 9.5
v -5.5 6.5 -7.9
v 2.9 1 -7.8
v 2.9 1 -7.9
v 2.9 1.5 -7.8
v 2.9 1.5 -7.9
v 4.7 0.4 3.3
v 4.7 0.4 3.2
v 4.7 0.5 3.3
v 4.7 0.5 3.2
v -5 0.5 9
v -5 0.5 -7.9
v -5 0.9 9
v -5 0.9 -7.9
v -5 6.5 9
v -5 6.5 -7.9
v 3.9 1 -7.8
v 3.9 1 -7.9
v 3.9 1.5 -7.8
v 3.9 1.5 -7.9
v 4.6 0.4 3.3
v 4.6 0.4 3.2
v 4.6 0.5 3.3
v 4.6 0.5 3.2
v 6 0 9.5
v 6 0 -7.9
v 6 0.4 9.1
v 6 0.4 -7.9
v 6 0.5 9.1
v 6 0.5 9
v 6 0.5 -7.9
v 6 0.9 9.1
v 6 0.9 9
v 6 6.5 9.5
v 6 6.5 9.1
v 6 6.5 9
v -5.5 0 9.5
v -5.5 6.5 9.5
v 6 0 9.5
v 6 6.5 9.5
v 4.6 0.4 3.2
v 4.6 0.5 3.2
v 4.7 0.4 3.2
v 4.7 0.5 3.2
v 2.9 1 -7.8
v 2.9 1.5 -7.8
v 3.9 1 -7.8
v 3.9 1.5 -7.8
v -5 0.5 9
v -5 0.9 9
v -5 6.5 9
v 6 0.5 9
v 6 0.9 9
v 6 6.5 9
v 4.6 0.4 3.3
v 4.6 0.5 3.3
v 4.7 0.4 3.3
v 4.7 0.5 3.3
v -5.5 0 -7.9
v -5.5 6.5 -7.9
v -5.1 0.4 -7.9
v -5.1 0.5 -7.9
v -5.1 0.9 -7.9
v -5.1 6.5 -7.9
v -5 0.5 -7.9
v -5 0.9 -7.9
v -5 6.5 -7.9
v 2.9 1 -7.9
v 2.9 1.5 -7.9
v 3.9 1 -7.9
v 3.9 1.5 -7.9
v 6 0 -7.9
v 6 0.4 -7.9
v 6 0.5 -7.9
v -5.5 0 9.5
v 6 0 9.5
v -1.8 0 9
v 5.9 0 9
v -4.3 0 8.6
v -1.8 0 8.6
v -4.3 0 -7.8
v 5.9 0 -7.8
v -5.5 0 -7.9
v 6 0 -7.9
v 2.9 1 -7.8
v 3.9 1 -7.8
v 2.9 1 -7.9
v 3.9 1 -7.9
v 4.6 0.4 3.3
v 4.7 0.4 3.3
v 4.6 0.4 3.2
v 4.7 0.4 3.2
v -5 0.5 9
v 6 0.5 9
v 4.6 0.5 3.3
v 4.7 0.5 3.3
v 4.6 0.5 3.2
v 4.7 0.5 3.2
v -5 0.5 -7.9
v 6 0.5 -7.9
v 2.9 1.5 -7.8
v 3.9 1.5 -7.8
v 2.9 1.5 -7.9
v 3.9 1.5 -7.9
v -5.5 6.5 9.5
v 6 6.5 9.5
v -5.1 6.5 9.1
v 6 6.5 9.1
v -5 6.5 9
v 6 6.5 9
v -5.5 6.5 -7.9
v -5.1 6.5 -7.9
v -5 6.5 -7.9

# faces
f 3/1/1 2/1/1 1/1/1
f 4/1/1 2/1/1 3/1/1
f 7/3/1 6/3/1 5/3/1
f 8/3/1 6/3/1 7/3/1
f 11/2/1 10/2/1 9/2/1
f 12/2/1 10/2/1 11/2/1
f 13/3/2 14/3/2 15/3/2
f 15/3/2 14/3/2 16/3/2
f 15/4/2 16/4/2 17/4/2
f 17/4/2 16/4/2 18/4/2
f 19/3/2 20/3/2 21/3/2
f 21/3/2 20/3/2 22/3/2
f 23/2/2 24/2/2 25/2/2
f 25/2/2 24/2/2 26/2/2
f 27/1/2 28/1/2 29/1/2
f 29/1/2 28/1/2 30/1/2
f 27/1/2 29/1/2 31/1/2
f 29/2/2 30/2/2 31/2/2
f 31/2/2 30/2/2 32/2/2
f 32/2/2 30/2/2 33/2/2
f 27/1/2 31/1/2 34/1/2
f 31/3/2 32/3/2 34/3/2
f 34/3/2 32/3/2 35/3/2
f 27/1/2 34/1/2 36/1/2
f 34/4/2 35/4/2 37/4/2
f 36/1/2 34/1/2 37/1/2
f 37/4/2 35/4/2 38/4/2
f 41/1/3 40/1/3 39/1/3
f 42/1/3 40/1/3 41/1/3
f 45/2/3 44/2/3 43/2/3
f 46/2/3 44/2/3 45/2/3
f 49/3/3 48/3/3 47/3/3
f 50/3/3 48/3/3 49/3/3
f 51/3/4 52/3/4 54/3/4
f 52/4/4 53/4/4 55/4/4
f 54/3/4 52/3/4 55/3/4
f 55/4/4 53/4/4 56/4/4
f 57/2/4 58/2/4 59/2/4
f 59/2/4 58/2/4 60/2/4
f 61/1/4 62/1/4 63/1/4
f 63/1/4 62/1/4 64/1/4
f 64/1/4 62/1/4 65/1/4
f 65/1/4 62/1/4 66/1/4
f 63/2/4 64/2/4 67/2/4
f 64/3/4 65/3/4 67/3/4
f 65/4/4 66/4/4 68/4/4
f 67/3/4 65/3/4 68/3/4
f 68/4/4 66/4/4 69/4/4
f 70/3/4 71/3/4 72/3/4
f 72/3/4 71/3/4 73/3/4
f 61/1/4 63/1/4 74/1/4
f 63/2/4 67/2/4 75/2/4
f 74/1/4 63/1/4 75/1/4
f 75/2/4 67/2/4 76/2/4
f 79/1/5 78/1/5 77/1/5
f 80/1/5 78/1/5 79/1/5
f 81/1/5 79/1/5 77/1/5
f 82/2/5 80/2/5 79/2/5
f 82/1/5 79/1/5 81/1/5
f 83/1/5 81/1/5 77/1/5
f 83/2/5 82/2/5 81/2/5
f 84/1/5 78/1/5 80/1/5
f 84/2/5 82/2/5 83/2/5
f 84/2/5 80/2/5 82/2/5
f 85/1/5 83/1/5 77/1/5
f 85/1/5 84/1/5 83/1/5
f 86/1/5 78/1/5 84/1/5
f 86/1/5 84/1/5 85/1/5
f 89/3/5 88/3/5 87/3/5
f 90/3/5 88/3/5 89/3/5
f 91/2/6 92/2/6 93/2/6
f 93/2/6 92/2/6 94/2/6
f 95/2/6 96/2/6 97/2/6
f 97/2/6 96/2/6 98/2/6
f 95/2/6 97/2/6 99/2/6
f 98/2/6 96/2/6 100/2/6
f 95/2/6 99/2/6 101/2/6
f 99/2/6 100/2/6 101/2/6
f 100/2/6 96/2/6 102/2/6
f 101/2/6 100/2/6 102/2/6
f 103/3/6 104/3/6 105/3/6
f 105/3/6 104/3/6 106/3/6
f 107/1/6 108/1/6 109/1/6
f 109/1/6 108/1/6 110/1/6
f 109/4/6 110/4/6 111/4/6
f 111/4/6 110/4/6 112/4/6
f 107/1/6 109/1/6 113/1/6
f 109/4/6 111/4/6 114/4/6
f 113/1/6 109/1/6 114/1/6
f 114/4/6 111/4/6 115/4/6
